<svg xmlns="http://www.w3.org/2000/svg" xmlns:xlink="http://www.w3.org/1999/xlink" width="500" zoomAndPan="magnify" viewBox="0 0 375 374.999991" height="500" preserveAspectRatio="xMidYMid meet" version="1.0"><defs><g/><clipPath id="57e19d7ce8"><path d="M 16 98 L 360 98 L 360 298 L 16 298 Z M 16 98 " clip-rule="nonzero"/></clipPath><clipPath id="b19914a1d2"><path d="M 72.371094 7.511719 L 383.761719 127.621094 L 302.789062 337.546875 L -8.601562 217.4375 Z M 72.371094 7.511719 " clip-rule="nonzero"/></clipPath><clipPath id="63cdccef5c"><path d="M 72.371094 7.511719 L 383.761719 127.621094 L 302.789062 337.546875 L -8.601562 217.4375 Z M 72.371094 7.511719 " clip-rule="nonzero"/></clipPath><clipPath id="8de7f8f33b"><path d="M 357.683594 175.449219 C 365.425781 149.140625 352.199219 120.683594 327.21875 109.492188 C 307.9375 100.78125 286.59375 104.011719 271.042969 115.707031 C 263.289062 121.492188 252.570312 121.035156 245.039062 114.875 C 239.238281 110.089844 232.445312 106.054688 225.054688 103.203125 C 203.371094 94.839844 180.132812 97.480469 161.433594 108.527344 C 150.601562 114.964844 137.160156 114.589844 126.289062 108.277344 C 121.570312 105.464844 116.367188 103.175781 110.929688 101.5 C 75.652344 90.582031 37.417969 108.246094 22.683594 142.050781 C 5.894531 180.4375 24.660156 224.617188 63.34375 239.539062 C 79.363281 245.71875 96.160156 245.828125 111.257812 241.179688 C 126.527344 236.453125 142.847656 243.3125 150.085938 257.570312 C 158.554688 274.140625 173.3125 287.617188 192.664062 293.949219 C 228.242188 305.550781 267.480469 287.851562 282.285156 253.507812 C 283.976562 249.488281 285.328125 245.621094 286.355469 241.488281 C 289.714844 227.640625 300.570312 217.109375 314.613281 214.460938 C 334.261719 210.855469 351.519531 196.566406 357.683594 175.449219 Z M 357.683594 175.449219 " clip-rule="nonzero"/></clipPath><clipPath id="9b80026650"><path d="M 120 71 L 152 71 L 152 104 L 120 104 Z M 120 71 " clip-rule="nonzero"/></clipPath><clipPath id="9bcfd33dda"><path d="M 72.371094 7.511719 L 383.761719 127.621094 L 302.789062 337.546875 L -8.601562 217.4375 Z M 72.371094 7.511719 " clip-rule="nonzero"/></clipPath><clipPath id="eff3af001d"><path d="M 72.371094 7.511719 L 383.761719 127.621094 L 302.789062 337.546875 L -8.601562 217.4375 Z M 72.371094 7.511719 " clip-rule="nonzero"/></clipPath><clipPath id="0520f17639"><path d="M 150.601562 93.308594 C 150.230469 94.273438 149.769531 95.191406 149.21875 96.0625 C 148.667969 96.933594 148.035156 97.742188 147.324219 98.488281 C 146.613281 99.238281 145.835938 99.90625 144.992188 100.503906 C 144.148438 101.097656 143.253906 101.601562 142.308594 102.019531 C 141.367188 102.4375 140.390625 102.761719 139.386719 102.988281 C 138.378906 103.214844 137.359375 103.339844 136.328125 103.363281 C 135.296875 103.390625 134.273438 103.3125 133.257812 103.136719 C 132.238281 102.960938 131.25 102.6875 130.289062 102.316406 C 129.324219 101.945312 128.40625 101.484375 127.535156 100.929688 C 126.664062 100.378906 125.855469 99.746094 125.105469 99.035156 C 124.359375 98.324219 123.6875 97.546875 123.09375 96.703125 C 122.5 95.859375 121.996094 94.964844 121.578125 94.023438 C 121.160156 93.078125 120.835938 92.105469 120.609375 91.097656 C 120.382812 90.089844 120.257812 89.074219 120.234375 88.039062 C 120.207031 87.007812 120.285156 85.984375 120.460938 84.96875 C 120.636719 83.953125 120.910156 82.960938 121.28125 82 C 121.652344 81.039062 122.113281 80.121094 122.667969 79.25 C 123.21875 78.375 123.851562 77.566406 124.5625 76.820312 C 125.273438 76.074219 126.050781 75.402344 126.894531 74.808594 C 127.738281 74.214844 128.632812 73.707031 129.574219 73.289062 C 130.515625 72.871094 131.492188 72.550781 132.5 72.324219 C 133.507812 72.097656 134.523438 71.972656 135.554688 71.945312 C 136.589844 71.921875 137.613281 71.996094 138.628906 72.171875 C 139.644531 72.347656 140.636719 72.621094 141.597656 72.992188 C 142.558594 73.367188 143.476562 73.828125 144.347656 74.378906 C 145.222656 74.929688 146.03125 75.5625 146.777344 76.273438 C 147.523438 76.984375 148.195312 77.761719 148.789062 78.605469 C 149.382812 79.449219 149.890625 80.34375 150.308594 81.285156 C 150.726562 82.230469 151.046875 83.207031 151.273438 84.210938 C 151.5 85.21875 151.625 86.238281 151.652344 87.269531 C 151.675781 88.300781 151.601562 89.324219 151.425781 90.339844 C 151.25 91.359375 150.976562 92.347656 150.601562 93.308594 Z M 150.601562 93.308594 " clip-rule="nonzero"/></clipPath><clipPath id="5c606e8874"><path d="M 221 69 L 241 69 L 241 89 L 221 89 Z M 221 69 " clip-rule="nonzero"/></clipPath><clipPath id="e4876691c1"><path d="M 72.371094 7.511719 L 383.761719 127.621094 L 302.789062 337.546875 L -8.601562 217.4375 Z M 72.371094 7.511719 " clip-rule="nonzero"/></clipPath><clipPath id="b9554f3ae7"><path d="M 72.371094 7.511719 L 383.761719 127.621094 L 302.789062 337.546875 L -8.601562 217.4375 Z M 72.371094 7.511719 " clip-rule="nonzero"/></clipPath><clipPath id="055404d05f"><path d="M 239.949219 82.199219 C 239.726562 82.773438 239.453125 83.320312 239.125 83.839844 C 238.792969 84.363281 238.417969 84.84375 237.992188 85.289062 C 237.566406 85.734375 237.105469 86.136719 236.601562 86.492188 C 236.097656 86.84375 235.566406 87.148438 235 87.398438 C 234.4375 87.644531 233.855469 87.839844 233.257812 87.972656 C 232.65625 88.109375 232.046875 88.183594 231.433594 88.199219 C 230.816406 88.214844 230.207031 88.167969 229.597656 88.0625 C 228.992188 87.957031 228.402344 87.792969 227.828125 87.574219 C 227.253906 87.351562 226.707031 87.074219 226.1875 86.746094 C 225.667969 86.417969 225.183594 86.039062 224.738281 85.617188 C 224.292969 85.191406 223.890625 84.726562 223.535156 84.222656 C 223.183594 83.722656 222.878906 83.1875 222.632812 82.625 C 222.382812 82.0625 222.191406 81.480469 222.054688 80.878906 C 221.917969 80.28125 221.84375 79.671875 221.828125 79.054688 C 221.816406 78.441406 221.859375 77.828125 221.964844 77.222656 C 222.070312 76.617188 222.234375 76.027344 222.453125 75.453125 C 222.675781 74.878906 222.953125 74.332031 223.28125 73.808594 C 223.609375 73.289062 223.988281 72.808594 224.410156 72.359375 C 224.835938 71.914062 225.300781 71.515625 225.804688 71.160156 C 226.308594 70.804688 226.839844 70.503906 227.402344 70.253906 C 227.964844 70.003906 228.546875 69.8125 229.148438 69.679688 C 229.75 69.542969 230.355469 69.46875 230.972656 69.453125 C 231.585938 69.4375 232.199219 69.484375 232.804688 69.589844 C 233.410156 69.695312 234 69.855469 234.578125 70.078125 C 235.152344 70.300781 235.699219 70.574219 236.21875 70.90625 C 236.738281 71.234375 237.222656 71.609375 237.667969 72.035156 C 238.113281 72.460938 238.511719 72.921875 238.867188 73.425781 C 239.222656 73.929688 239.523438 74.464844 239.773438 75.027344 C 240.023438 75.589844 240.214844 76.171875 240.351562 76.769531 C 240.484375 77.371094 240.558594 77.980469 240.574219 78.59375 C 240.589844 79.210938 240.546875 79.820312 240.441406 80.429688 C 240.335938 81.035156 240.171875 81.625 239.949219 82.199219 Z M 239.949219 82.199219 " clip-rule="nonzero"/></clipPath><clipPath id="458ddabfc2"><path d="M 305 234 L 336 234 L 336 265 L 305 265 Z M 305 234 " clip-rule="nonzero"/></clipPath><clipPath id="6bf156601e"><path d="M 72.371094 7.511719 L 383.761719 127.621094 L 302.789062 337.546875 L -8.601562 217.4375 Z M 72.371094 7.511719 " clip-rule="nonzero"/></clipPath><clipPath id="ac8199050d"><path d="M 72.371094 7.511719 L 383.761719 127.621094 L 302.789062 337.546875 L -8.601562 217.4375 Z M 72.371094 7.511719 " clip-rule="nonzero"/></clipPath><clipPath id="ba6caec440"><path d="M 334.3125 254.753906 C 333.964844 255.65625 333.53125 256.519531 333.011719 257.339844 C 332.492188 258.164062 331.894531 258.925781 331.226562 259.628906 C 330.558594 260.332031 329.824219 260.960938 329.03125 261.519531 C 328.238281 262.082031 327.398438 262.554688 326.507812 262.949219 C 325.621094 263.34375 324.703125 263.648438 323.757812 263.859375 C 322.808594 264.074219 321.847656 264.191406 320.878906 264.214844 C 319.90625 264.238281 318.945312 264.167969 317.988281 264 C 317.03125 263.835938 316.097656 263.578125 315.191406 263.226562 C 314.285156 262.878906 313.421875 262.445312 312.601562 261.925781 C 311.78125 261.40625 311.019531 260.8125 310.316406 260.140625 C 309.613281 259.472656 308.984375 258.738281 308.425781 257.945312 C 307.863281 257.152344 307.386719 256.3125 306.996094 255.421875 C 306.601562 254.535156 306.296875 253.617188 306.085938 252.671875 C 305.871094 251.722656 305.753906 250.761719 305.730469 249.792969 C 305.707031 248.820312 305.777344 247.859375 305.945312 246.902344 C 306.109375 245.945312 306.367188 245.011719 306.71875 244.105469 C 307.066406 243.199219 307.5 242.335938 308.019531 241.515625 C 308.539062 240.695312 309.132812 239.933594 309.804688 239.230469 C 310.472656 238.527344 311.207031 237.898438 312 237.339844 C 312.792969 236.777344 313.632812 236.300781 314.523438 235.910156 C 315.410156 235.515625 316.328125 235.210938 317.273438 235 C 318.222656 234.785156 319.179688 234.667969 320.152344 234.644531 C 321.121094 234.621094 322.085938 234.691406 323.042969 234.859375 C 324 235.023438 324.933594 235.28125 325.835938 235.632812 C 326.742188 235.980469 327.605469 236.414062 328.425781 236.933594 C 329.246094 237.453125 330.011719 238.046875 330.714844 238.71875 C 331.417969 239.386719 332.046875 240.121094 332.605469 240.914062 C 333.167969 241.707031 333.640625 242.546875 334.035156 243.4375 C 334.429688 244.324219 334.734375 245.242188 334.945312 246.1875 C 335.160156 247.136719 335.277344 248.09375 335.300781 249.066406 C 335.324219 250.039062 335.253906 251 335.085938 251.957031 C 334.921875 252.914062 334.664062 253.847656 334.3125 254.753906 Z M 334.3125 254.753906 " clip-rule="nonzero"/></clipPath></defs><g clip-path="url(#57e19d7ce8)"><g clip-path="url(#b19914a1d2)"><g clip-path="url(#63cdccef5c)"><g clip-path="url(#8de7f8f33b)"><path fill="#4b5ae4" d="M 52.457031 -30.136719 L -66.285156 277.710938 L 318.863281 426.269531 L 437.605469 118.425781 Z M 52.457031 -30.136719 " fill-opacity="1" fill-rule="nonzero"/></g></g></g></g><g clip-path="url(#9b80026650)"><g clip-path="url(#9bcfd33dda)"><g clip-path="url(#eff3af001d)"><g clip-path="url(#0520f17639)"><path fill="#4b5ae4" d="M 124.285156 61.355469 L 109.640625 99.3125 L 147.601562 113.957031 L 162.242188 75.996094 Z M 124.285156 61.355469 " fill-opacity="1" fill-rule="nonzero"/></g></g></g></g><g clip-path="url(#5c606e8874)"><g clip-path="url(#e4876691c1)"><g clip-path="url(#b9554f3ae7)"><g clip-path="url(#055404d05f)"><path fill="#4b5ae4" d="M 224.246094 63.132812 L 215.511719 85.78125 L 238.160156 94.519531 L 246.894531 71.871094 Z M 224.246094 63.132812 " fill-opacity="1" fill-rule="nonzero"/></g></g></g></g><g clip-path="url(#458ddabfc2)"><g clip-path="url(#6bf156601e)"><g clip-path="url(#ac8199050d)"><g clip-path="url(#ba6caec440)"><path fill="#4b5ae4" d="M 309.542969 224.675781 L 295.761719 260.402344 L 331.488281 274.183594 L 345.269531 238.457031 Z M 309.542969 224.675781 " fill-opacity="1" fill-rule="nonzero"/></g></g></g></g><g fill="#fcfdf2" fill-opacity="1"><g transform="translate(68.513756, 232.55955)"><g><path d="M 30.171875 -8.28125 C 25.453125 -6.988281 21.234375 -6.675781 17.515625 -7.34375 C 13.796875 -8.007812 10.519531 -9.320312 7.6875 -11.28125 C 4.863281 -13.238281 2.40625 -15.617188 0.3125 -18.421875 C -1.78125 -21.222656 -3.539062 -24.132812 -4.96875 -27.15625 C -6.394531 -30.175781 -7.566406 -33.066406 -8.484375 -35.828125 C -9.410156 -38.585938 -10.085938 -40.878906 -10.515625 -42.703125 C -11.253906 -45.710938 -11.6875 -49.207031 -11.8125 -53.1875 C -11.945312 -57.175781 -11.613281 -61.304688 -10.8125 -65.578125 C -10.019531 -69.859375 -8.625 -74 -6.625 -78 C -4.632812 -82.007812 -1.875 -85.539062 1.65625 -88.59375 C 5.195312 -91.65625 9.703125 -93.9375 15.171875 -95.4375 C 16.515625 -95.8125 18.066406 -95.9375 19.828125 -95.8125 C 21.597656 -95.695312 23.191406 -95.09375 24.609375 -94 C 26.035156 -92.90625 26.816406 -91.082031 26.953125 -88.53125 C 27.128906 -85.851562 26.695312 -83.832031 25.65625 -82.46875 C 24.625 -81.101562 23.289062 -80.195312 21.65625 -79.75 C 21.351562 -79.664062 21.03125 -79.59375 20.6875 -79.53125 C 20.34375 -79.46875 19.972656 -79.421875 19.578125 -79.390625 C 18.390625 -79.316406 17.234375 -79.125 16.109375 -78.8125 C 12.890625 -77.925781 10.164062 -76.273438 7.9375 -73.859375 C 5.71875 -71.441406 4.253906 -68.507812 3.546875 -65.0625 C 2.835938 -61.613281 3.117188 -57.890625 4.390625 -53.890625 C 5.972656 -49.023438 8.429688 -46.003906 11.765625 -44.828125 C 15.097656 -43.648438 19.847656 -43.707031 26.015625 -45 C 31.097656 -46.070312 35.140625 -45.894531 38.140625 -44.46875 C 41.148438 -43.039062 43.320312 -40.84375 44.65625 -37.875 C 45.988281 -34.914062 46.675781 -31.585938 46.71875 -27.890625 C 46.863281 -23.578125 45.539062 -19.613281 42.75 -16 C 39.96875 -12.382812 35.773438 -9.8125 30.171875 -8.28125 Z M 30.171875 -8.28125 "/></g></g></g><g fill="#fcfdf2" fill-opacity="1"><g transform="translate(113.96248, 217.397109)"><g><path d="M 8.71875 0.359375 C 6.3125 0.265625 4.445312 -1.128906 3.125 -3.828125 C 1.800781 -6.523438 1.425781 -10.59375 2 -16.03125 C 2.582031 -21.476562 4.410156 -28.367188 7.484375 -36.703125 C 9.492188 -42.117188 11.039062 -47.65625 12.125 -53.3125 C 13.207031 -58.96875 14.066406 -64.285156 14.703125 -69.265625 C 15.335938 -74.253906 15.960938 -78.4375 16.578125 -81.8125 C 16.785156 -83.039062 17.492188 -84.269531 18.703125 -85.5 C 19.921875 -86.738281 21.847656 -87.300781 24.484375 -87.1875 C 26.265625 -87.113281 27.691406 -86.566406 28.765625 -85.546875 C 29.847656 -84.535156 30.640625 -83.4375 31.140625 -82.25 C 31.359375 -81.695312 31.523438 -80.488281 31.640625 -78.625 C 31.753906 -76.757812 31.894531 -74.660156 32.0625 -72.328125 C 32.238281 -69.992188 32.5 -67.8125 32.84375 -65.78125 C 33.1875 -63.75 33.6875 -62.289062 34.34375 -61.40625 C 35.007812 -60.53125 35.835938 -59.875 36.828125 -59.4375 C 37.816406 -59.007812 38.816406 -58.773438 39.828125 -58.734375 C 40.910156 -58.691406 41.984375 -58.859375 43.046875 -59.234375 C 44.109375 -59.617188 45.003906 -60.179688 45.734375 -60.921875 C 46.460938 -61.753906 46.976562 -63 47.28125 -64.65625 C 47.582031 -66.3125 47.789062 -68.144531 47.90625 -70.15625 C 48.03125 -72.164062 48.128906 -74.097656 48.203125 -75.953125 C 48.285156 -77.804688 48.429688 -79.3125 48.640625 -80.46875 C 48.847656 -81.695312 49.578125 -82.925781 50.828125 -84.15625 C 52.085938 -85.382812 54.035156 -85.945312 56.671875 -85.84375 C 58.453125 -85.769531 59.90625 -85.238281 61.03125 -84.25 C 62.15625 -83.269531 62.925781 -82.15625 63.34375 -80.90625 C 63.75 -79.800781 64.054688 -77.613281 64.265625 -74.34375 C 64.484375 -71.082031 64.75 -67.273438 65.0625 -62.921875 C 65.382812 -58.566406 65.835938 -54.125 66.421875 -49.59375 C 67.015625 -45.0625 67.859375 -40.992188 68.953125 -37.390625 C 70.035156 -33.691406 71.019531 -29.921875 71.90625 -26.078125 C 72.800781 -22.242188 73.40625 -18.570312 73.71875 -15.0625 C 74.039062 -11.550781 73.910156 -8.453125 73.328125 -5.765625 C 72.753906 -3.078125 71.5625 -0.976562 69.75 0.53125 C 67.9375 2.050781 65.328125 2.738281 61.921875 2.59375 L 48.90625 2.046875 C 47.039062 1.972656 45.351562 1.4375 43.84375 0.4375 C 42.34375 -0.5625 41.269531 -2.234375 40.625 -4.578125 C 39.988281 -6.929688 39.953125 -10.132812 40.515625 -14.1875 C 41.078125 -18.25 42.457031 -23.410156 44.65625 -29.671875 C 45.257812 -31.273438 45.691406 -32.960938 45.953125 -34.734375 C 46.222656 -36.503906 46.328125 -38.070312 46.265625 -39.4375 C 46.210938 -40.800781 46.007812 -41.726562 45.65625 -42.21875 C 45.28125 -42.675781 44.476562 -43.046875 43.25 -43.328125 C 42.019531 -43.617188 40.707031 -43.796875 39.3125 -43.859375 C 37.84375 -43.921875 36.441406 -43.859375 35.109375 -43.671875 C 33.785156 -43.492188 32.84375 -43.191406 32.28125 -42.765625 C 31.46875 -42.015625 31.160156 -40.78125 31.359375 -39.0625 C 31.554688 -37.351562 31.753906 -35.945312 31.953125 -34.84375 C 32.585938 -31.5625 33.21875 -28.203125 33.84375 -24.765625 C 34.476562 -21.328125 34.863281 -18.050781 35 -14.9375 C 35.144531 -11.832031 34.894531 -9.050781 34.25 -6.59375 C 33.613281 -4.132812 32.390625 -2.222656 30.578125 -0.859375 C 28.773438 0.492188 26.175781 1.097656 22.78125 0.953125 Z M 8.71875 0.359375 "/></g></g></g><g fill="#fcfdf2" fill-opacity="1"><g transform="translate(196.520394, 226.816547)"><g><path d="M 9.40625 -0.640625 C 7.15625 -0.492188 5.398438 -0.84375 4.140625 -1.6875 C 2.878906 -2.539062 1.984375 -3.664062 1.453125 -5.0625 C 0.929688 -6.457031 0.640625 -7.910156 0.578125 -9.421875 C 0.515625 -10.929688 0.5625 -12.234375 0.71875 -13.328125 C 1.269531 -17.722656 2.347656 -22.070312 3.953125 -26.375 C 5.566406 -30.6875 6.925781 -34.9375 8.03125 -39.125 C 8.882812 -42.519531 9.644531 -45.851562 10.3125 -49.125 C 10.988281 -52.40625 11.71875 -55.742188 12.5 -59.140625 C 12.65625 -60.003906 12.976562 -61.675781 13.46875 -64.15625 C 13.96875 -66.644531 14.648438 -69.46875 15.515625 -72.625 C 16.390625 -75.789062 17.503906 -78.800781 18.859375 -81.65625 C 20.222656 -84.507812 21.894531 -86.703125 23.875 -88.234375 C 25.34375 -89.429688 27.242188 -90.113281 29.578125 -90.28125 C 31.265625 -90.394531 32.925781 -90.175781 34.5625 -89.625 C 36.195312 -89.070312 37.445312 -88.164062 38.3125 -86.90625 C 41.8125 -82.320312 44.5 -77.359375 46.375 -72.015625 C 48.257812 -66.671875 50.273438 -61.351562 52.421875 -56.0625 C 53.554688 -53.269531 55.070312 -50.207031 56.96875 -46.875 C 58.875 -43.539062 60.796875 -40.171875 62.734375 -36.765625 C 64.679688 -33.367188 66.347656 -30.066406 67.734375 -26.859375 C 69.117188 -23.648438 69.941406 -20.734375 70.203125 -18.109375 C 70.410156 -16.179688 70.351562 -14.175781 70.03125 -12.09375 C 69.707031 -10.019531 69.050781 -8.25 68.0625 -6.78125 C 67.082031 -5.3125 65.625 -4.515625 63.6875 -4.390625 L 47.09375 -3.234375 C 45.238281 -3.109375 43.75 -3.898438 42.625 -5.609375 C 41.5 -7.316406 40.644531 -9.570312 40.0625 -12.375 C 39.476562 -15.175781 39.070312 -18.195312 38.84375 -21.4375 C 38.625 -24.6875 38.507812 -27.785156 38.5 -30.734375 C 38.488281 -33.679688 38.507812 -36.148438 38.5625 -38.140625 C 38.625 -40.128906 38.609375 -41.273438 38.515625 -41.578125 C 38.316406 -42.179688 37.703125 -42.601562 36.671875 -42.84375 C 35.648438 -43.09375 34.484375 -43.171875 33.171875 -43.078125 C 31.859375 -42.992188 30.570312 -42.734375 29.3125 -42.296875 C 28.0625 -41.859375 27.273438 -41.234375 26.953125 -40.421875 C 26.878906 -40.265625 27.15625 -39.253906 27.78125 -37.390625 C 28.414062 -35.535156 29.179688 -33.160156 30.078125 -30.265625 C 30.984375 -27.378906 31.773438 -24.347656 32.453125 -21.171875 C 33.140625 -17.992188 33.523438 -14.96875 33.609375 -12.09375 C 33.691406 -9.226562 33.234375 -6.847656 32.234375 -4.953125 C 31.234375 -3.054688 29.5 -2.023438 27.03125 -1.859375 Z M 30.296875 -76.453125 C 29.140625 -76.210938 28.207031 -75.289062 27.5 -73.6875 C 26.800781 -72.082031 26.328125 -70.179688 26.078125 -67.984375 C 25.835938 -65.796875 25.75 -63.710938 25.8125 -61.734375 C 25.875 -59.753906 26.050781 -58.316406 26.34375 -57.421875 C 26.632812 -56.578125 27.28125 -55.957031 28.28125 -55.5625 C 29.28125 -55.164062 30.363281 -55.007812 31.53125 -55.09375 C 32.832031 -55.175781 34.082031 -55.550781 35.28125 -56.21875 C 36.488281 -56.882812 37.175781 -57.726562 37.34375 -58.75 C 37.507812 -59.6875 37.425781 -61.148438 37.09375 -63.140625 C 36.757812 -65.140625 36.242188 -67.203125 35.546875 -69.328125 C 34.859375 -71.460938 34.054688 -73.238281 33.140625 -74.65625 C 32.234375 -76.070312 31.285156 -76.671875 30.296875 -76.453125 Z M 30.296875 -76.453125 "/></g></g></g><g fill="#fcfdf2" fill-opacity="1"><g transform="translate(274.939095, 220.424341)"><g><path d="M -16.40625 -66.09375 C -18.019531 -66.289062 -19.390625 -67.125 -20.515625 -68.59375 C -21.648438 -70.0625 -22.421875 -71.847656 -22.828125 -73.953125 C -23.242188 -76.054688 -23.128906 -78.128906 -22.484375 -80.171875 C -21.847656 -82.222656 -20.53125 -83.910156 -18.53125 -85.234375 C -17.050781 -86.191406 -15.554688 -86.976562 -14.046875 -87.59375 C -12.535156 -88.21875 -10.378906 -88.988281 -7.578125 -89.90625 C -6.546875 -90.238281 -5.382812 -90.617188 -4.09375 -91.046875 C -2.800781 -91.472656 -1.382812 -91.9375 0.15625 -92.4375 C 2.070312 -93.070312 3.984375 -93.71875 5.890625 -94.375 C 7.796875 -95.039062 9.476562 -95.617188 10.9375 -96.109375 C 11.976562 -96.441406 12.992188 -96.769531 13.984375 -97.09375 C 14.972656 -97.425781 15.914062 -97.738281 16.8125 -98.03125 C 20.195312 -99.132812 23.054688 -99.984375 25.390625 -100.578125 C 27.722656 -101.179688 29.84375 -101.429688 31.75 -101.328125 C 34.175781 -101.148438 36.164062 -100.253906 37.71875 -98.640625 C 39.269531 -97.023438 40.332031 -95.148438 40.90625 -93.015625 C 41.476562 -90.878906 41.441406 -88.867188 40.796875 -86.984375 C 40.160156 -85.109375 38.847656 -83.84375 36.859375 -83.1875 C 34.640625 -82.457031 32.515625 -82.0625 30.484375 -82 C 28.460938 -81.945312 26.71875 -81.679688 25.25 -81.203125 C 23.632812 -80.671875 22.523438 -79.453125 21.921875 -77.546875 C 21.316406 -75.640625 21.507812 -72.195312 22.5 -67.21875 C 23.257812 -63.382812 24.648438 -59.878906 26.671875 -56.703125 C 28.691406 -53.535156 30.992188 -50.5625 33.578125 -47.78125 C 36.160156 -45 38.726562 -42.210938 41.28125 -39.421875 C 43.832031 -36.628906 46.035156 -33.65625 47.890625 -30.5 C 48.460938 -29.476562 48.9375 -28.210938 49.3125 -26.703125 C 49.6875 -25.191406 49.65625 -23.546875 49.21875 -21.765625 C 48.78125 -19.984375 47.722656 -18.289062 46.046875 -16.6875 C 44.367188 -15.082031 41.796875 -13.710938 38.328125 -12.578125 L 27.515625 -9.015625 C 24.128906 -7.910156 21.238281 -7.820312 18.84375 -8.75 C 16.457031 -9.675781 14.632812 -11.253906 13.375 -13.484375 C 12.113281 -15.722656 11.425781 -18.132812 11.3125 -20.71875 C 11.09375 -26.351562 10.785156 -31.835938 10.390625 -37.171875 C 9.992188 -42.515625 9.539062 -47.265625 9.03125 -51.421875 C 8.519531 -55.578125 7.925781 -58.566406 7.25 -60.390625 C 5.9375 -64.109375 4.617188 -66.851562 3.296875 -68.625 C 1.984375 -70.394531 0.695312 -71.484375 -0.5625 -71.890625 C -1.832031 -72.296875 -3.132812 -72.28125 -4.46875 -71.84375 C -6.09375 -71.3125 -7.726562 -70.382812 -9.375 -69.0625 C -11.019531 -67.75 -12.617188 -66.835938 -14.171875 -66.328125 C -14.972656 -66.054688 -15.71875 -65.976562 -16.40625 -66.09375 Z M -16.40625 -66.09375 "/></g></g></g><g fill="#fcfdf2" fill-opacity="1"><g transform="translate(181.370573, 262.102324)"><g><path d="M 8.234375 -1.671875 C 8.097656 -1.566406 7.972656 -1.46875 7.859375 -1.375 C 7.742188 -1.28125 7.617188 -1.1875 7.484375 -1.09375 C 7.316406 -0.9375 7.144531 -0.785156 6.96875 -0.640625 C 6.789062 -0.492188 6.617188 -0.335938 6.453125 -0.171875 C 6.304688 -0.0351562 6.148438 0.09375 5.984375 0.21875 C 5.816406 0.351562 5.648438 0.5 5.484375 0.65625 C 5.265625 0.832031 5.035156 1.007812 4.796875 1.1875 C 4.566406 1.375 4.335938 1.5625 4.109375 1.75 C 3.953125 1.875 3.84375 1.941406 3.78125 1.953125 C 3.71875 1.972656 3.582031 1.941406 3.375 1.859375 C 3.320312 1.835938 3.257812 1.8125 3.1875 1.78125 C 3.113281 1.75 3.039062 1.71875 2.96875 1.6875 C 2.707031 1.59375 2.445312 1.484375 2.1875 1.359375 C 1.925781 1.234375 1.671875 1.09375 1.421875 0.9375 L 1.171875 0.8125 C 1.023438 0.726562 0.976562 0.617188 1.03125 0.484375 C 1.070312 0.378906 1.109375 0.257812 1.140625 0.125 C 1.179688 0 1.234375 -0.117188 1.296875 -0.234375 L 2.578125 -2.703125 C 2.859375 -3.234375 3.140625 -3.765625 3.421875 -4.296875 C 3.703125 -4.835938 3.976562 -5.382812 4.25 -5.9375 C 4.4375 -6.289062 4.613281 -6.644531 4.78125 -7 C 4.957031 -7.363281 5.144531 -7.734375 5.34375 -8.109375 C 5.550781 -8.523438 5.757812 -8.941406 5.96875 -9.359375 C 6.175781 -9.785156 6.390625 -10.207031 6.609375 -10.625 C 6.753906 -10.957031 6.90625 -11.273438 7.0625 -11.578125 C 7.226562 -11.890625 7.390625 -12.203125 7.546875 -12.515625 C 7.617188 -12.648438 7.691406 -12.789062 7.765625 -12.9375 C 7.835938 -13.082031 7.90625 -13.222656 7.96875 -13.359375 C 8.019531 -13.460938 8.070312 -13.523438 8.125 -13.546875 C 8.175781 -13.578125 8.253906 -13.570312 8.359375 -13.53125 C 8.535156 -13.476562 8.703125 -13.410156 8.859375 -13.328125 C 9.023438 -13.242188 9.195312 -13.15625 9.375 -13.0625 C 9.570312 -12.9375 9.78125 -12.8125 10 -12.6875 C 10.21875 -12.5625 10.445312 -12.457031 10.6875 -12.375 C 10.925781 -12.289062 10.984375 -12.132812 10.859375 -11.90625 L 10.21875 -10.671875 L 8.0625 -6.53125 C 7.90625 -6.238281 7.75 -5.9375 7.59375 -5.625 C 7.4375 -5.3125 7.296875 -5.003906 7.171875 -4.703125 C 7.140625 -4.640625 7.117188 -4.59375 7.109375 -4.5625 C 7.140625 -4.570312 7.160156 -4.582031 7.171875 -4.59375 C 7.179688 -4.613281 7.191406 -4.625 7.203125 -4.625 C 7.441406 -4.78125 7.679688 -4.9375 7.921875 -5.09375 C 8.160156 -5.257812 8.382812 -5.421875 8.59375 -5.578125 C 8.75 -5.679688 8.894531 -5.789062 9.03125 -5.90625 C 9.164062 -6.03125 9.300781 -6.140625 9.4375 -6.234375 C 9.507812 -6.296875 9.582031 -6.351562 9.65625 -6.40625 C 9.726562 -6.457031 9.800781 -6.515625 9.875 -6.578125 C 9.988281 -6.660156 10.09375 -6.742188 10.1875 -6.828125 C 10.289062 -6.921875 10.394531 -7.023438 10.5 -7.140625 C 10.644531 -7.285156 10.835938 -7.429688 11.078125 -7.578125 C 11.273438 -7.679688 11.390625 -7.632812 11.421875 -7.4375 C 11.429688 -7.40625 11.4375 -7.375 11.4375 -7.34375 C 11.4375 -7.320312 11.4375 -7.296875 11.4375 -7.265625 C 11.40625 -7.035156 11.390625 -6.804688 11.390625 -6.578125 C 11.398438 -6.359375 11.429688 -6.128906 11.484375 -5.890625 C 11.554688 -5.441406 11.585938 -4.992188 11.578125 -4.546875 C 11.578125 -4.097656 11.566406 -3.640625 11.546875 -3.171875 L 11.546875 -2.875 C 11.535156 -2.863281 11.546875 -2.847656 11.578125 -2.828125 L 11.625 -2.9375 C 12.0625 -3.726562 12.488281 -4.523438 12.90625 -5.328125 C 13.320312 -6.128906 13.742188 -6.921875 14.171875 -7.703125 C 14.359375 -8.035156 14.539062 -8.359375 14.71875 -8.671875 C 14.90625 -8.984375 15.097656 -9.296875 15.296875 -9.609375 C 15.398438 -9.816406 15.550781 -9.867188 15.75 -9.765625 C 15.820312 -9.742188 15.878906 -9.71875 15.921875 -9.6875 C 15.960938 -9.65625 16.015625 -9.625 16.078125 -9.59375 C 16.316406 -9.46875 16.566406 -9.34375 16.828125 -9.21875 C 17.085938 -9.09375 17.335938 -8.960938 17.578125 -8.828125 C 17.671875 -8.765625 17.769531 -8.695312 17.875 -8.625 C 17.988281 -8.5625 18.09375 -8.488281 18.1875 -8.40625 C 18.300781 -8.289062 18.320312 -8.171875 18.25 -8.046875 L 17.921875 -7.421875 L 17.109375 -5.84375 C 16.816406 -5.257812 16.519531 -4.679688 16.21875 -4.109375 C 15.925781 -3.546875 15.632812 -2.972656 15.34375 -2.390625 L 14 0.1875 C 13.894531 0.382812 13.785156 0.582031 13.671875 0.78125 C 13.554688 0.988281 13.441406 1.191406 13.328125 1.390625 C 13.160156 1.710938 12.988281 2.03125 12.8125 2.34375 C 12.644531 2.65625 12.476562 2.96875 12.3125 3.28125 C 12.144531 3.582031 11.976562 3.890625 11.8125 4.203125 C 11.65625 4.523438 11.492188 4.835938 11.328125 5.140625 L 11.140625 5.5 C 11.054688 5.582031 10.957031 5.628906 10.84375 5.640625 C 10.738281 5.648438 10.632812 5.632812 10.53125 5.59375 C 10.4375 5.550781 10.328125 5.507812 10.203125 5.46875 L 9.609375 5.15625 C 9.390625 5.039062 9.179688 4.929688 8.984375 4.828125 C 8.785156 4.722656 8.578125 4.628906 8.359375 4.546875 C 8.179688 4.453125 8.085938 4.300781 8.078125 4.09375 C 8.097656 3.8125 8.101562 3.523438 8.09375 3.234375 C 8.09375 2.941406 8.101562 2.648438 8.125 2.359375 C 8.132812 2.273438 8.128906 2.195312 8.109375 2.125 C 8.097656 2.050781 8.097656 1.984375 8.109375 1.921875 C 8.117188 1.742188 8.125 1.554688 8.125 1.359375 C 8.132812 1.160156 8.148438 0.960938 8.171875 0.765625 C 8.191406 0.492188 8.210938 0.234375 8.234375 -0.015625 C 8.265625 -0.273438 8.28125 -0.539062 8.28125 -0.8125 C 8.28125 -1.03125 8.269531 -1.265625 8.25 -1.515625 C 8.257812 -1.535156 8.253906 -1.585938 8.234375 -1.671875 Z M 8.234375 -1.671875 "/></g></g></g><g fill="#fcfdf2" fill-opacity="1"><g transform="translate(194.489226, 268.49166)"><g><path d="M 6.109375 -5.5625 C 5.984375 -5.269531 5.863281 -4.96875 5.75 -4.65625 C 5.632812 -4.351562 5.519531 -4.050781 5.40625 -3.75 C 5.332031 -3.582031 5.265625 -3.410156 5.203125 -3.234375 C 5.140625 -3.066406 5.070312 -2.898438 5 -2.734375 C 4.914062 -2.503906 4.832031 -2.273438 4.75 -2.046875 C 4.675781 -1.828125 4.59375 -1.601562 4.5 -1.375 C 4.375 -1.070312 4.242188 -0.769531 4.109375 -0.46875 C 3.984375 -0.164062 3.863281 0.140625 3.75 0.453125 C 3.6875 0.535156 3.640625 0.625 3.609375 0.71875 C 3.578125 0.8125 3.539062 0.90625 3.5 1 C 3.488281 1.03125 3.484375 1.050781 3.484375 1.0625 C 3.484375 1.082031 3.472656 1.109375 3.453125 1.140625 C 3.398438 1.273438 3.3125 1.320312 3.1875 1.28125 L 1.171875 0.578125 C 1.109375 0.554688 1.0625 0.535156 1.03125 0.515625 C 0.90625 0.398438 0.867188 0.265625 0.921875 0.109375 C 1.015625 -0.128906 1.097656 -0.363281 1.171875 -0.59375 C 1.242188 -0.820312 1.328125 -1.054688 1.421875 -1.296875 C 1.703125 -1.992188 1.976562 -2.6875 2.25 -3.375 C 2.53125 -4.0625 2.769531 -4.753906 2.96875 -5.453125 L 4.046875 -8.578125 C 4.117188 -8.765625 4.179688 -8.960938 4.234375 -9.171875 C 4.296875 -9.390625 4.359375 -9.609375 4.421875 -9.828125 C 4.535156 -10.234375 4.660156 -10.644531 4.796875 -11.0625 C 4.929688 -11.476562 5.070312 -11.882812 5.21875 -12.28125 C 5.351562 -12.582031 5.476562 -12.875 5.59375 -13.15625 C 5.71875 -13.4375 5.835938 -13.726562 5.953125 -14.03125 C 6.035156 -14.207031 6.109375 -14.3125 6.171875 -14.34375 C 6.242188 -14.375 6.367188 -14.359375 6.546875 -14.296875 C 6.753906 -14.253906 6.945312 -14.191406 7.125 -14.109375 C 7.3125 -14.035156 7.503906 -13.960938 7.703125 -13.890625 C 7.773438 -13.867188 7.847656 -13.847656 7.921875 -13.828125 C 8.003906 -13.816406 8.085938 -13.800781 8.171875 -13.78125 C 8.210938 -13.757812 8.253906 -13.742188 8.296875 -13.734375 C 8.347656 -13.722656 8.40625 -13.707031 8.46875 -13.6875 C 8.632812 -13.632812 8.695312 -13.519531 8.65625 -13.34375 L 8.015625 -11.484375 L 7.765625 -10.765625 C 7.722656 -10.628906 7.679688 -10.492188 7.640625 -10.359375 C 7.609375 -10.234375 7.566406 -10.097656 7.515625 -9.953125 C 7.492188 -9.816406 7.460938 -9.679688 7.421875 -9.546875 C 7.378906 -9.410156 7.335938 -9.273438 7.296875 -9.140625 C 7.097656 -8.554688 6.894531 -7.960938 6.6875 -7.359375 C 6.488281 -6.765625 6.296875 -6.164062 6.109375 -5.5625 Z M 6.109375 -5.5625 "/></g></g></g><g fill="#fcfdf2" fill-opacity="1"><g transform="translate(199.992355, 270.47039)"><g><path d="M 4.53125 -5.515625 C 4.625 -5.929688 4.71875 -6.34375 4.8125 -6.75 C 4.90625 -7.164062 4.984375 -7.582031 5.046875 -8 C 5.140625 -8.394531 5.21875 -8.796875 5.28125 -9.203125 C 5.351562 -9.617188 5.425781 -10.023438 5.5 -10.421875 L 5.734375 -11.484375 C 5.753906 -11.578125 5.757812 -11.628906 5.75 -11.640625 C 5.738281 -11.660156 5.703125 -11.679688 5.640625 -11.703125 C 5.410156 -11.722656 5.191406 -11.753906 4.984375 -11.796875 C 4.773438 -11.847656 4.5625 -11.894531 4.34375 -11.9375 C 4.175781 -11.96875 4.007812 -12.003906 3.84375 -12.046875 C 3.675781 -12.097656 3.503906 -12.140625 3.328125 -12.171875 C 3.191406 -12.203125 3.140625 -12.289062 3.171875 -12.4375 C 3.191406 -12.507812 3.210938 -12.578125 3.234375 -12.640625 C 3.253906 -12.703125 3.269531 -12.765625 3.28125 -12.828125 L 3.703125 -14.765625 C 3.710938 -14.828125 3.738281 -14.878906 3.78125 -14.921875 C 3.820312 -14.972656 3.851562 -15.019531 3.875 -15.0625 C 3.96875 -15.144531 4.070312 -15.175781 4.1875 -15.15625 C 4.300781 -15.101562 4.421875 -15.054688 4.546875 -15.015625 C 4.679688 -14.984375 4.816406 -14.957031 4.953125 -14.9375 L 7.171875 -14.375 C 7.578125 -14.289062 7.972656 -14.203125 8.359375 -14.109375 C 8.753906 -14.023438 9.15625 -13.929688 9.5625 -13.828125 L 11.796875 -13.265625 C 11.984375 -13.222656 12.054688 -13.109375 12.015625 -12.921875 L 11.578125 -10.90625 C 11.546875 -10.78125 11.5 -10.703125 11.4375 -10.671875 C 11.382812 -10.640625 11.296875 -10.617188 11.171875 -10.609375 C 10.984375 -10.617188 10.78125 -10.632812 10.5625 -10.65625 C 10.351562 -10.675781 10.148438 -10.695312 9.953125 -10.71875 C 9.578125 -10.757812 9.210938 -10.816406 8.859375 -10.890625 C 8.773438 -10.898438 8.722656 -10.898438 8.703125 -10.890625 C 8.691406 -10.890625 8.675781 -10.84375 8.65625 -10.75 C 8.601562 -10.519531 8.550781 -10.285156 8.5 -10.046875 C 8.445312 -9.816406 8.390625 -9.582031 8.328125 -9.34375 C 8.242188 -8.988281 8.15625 -8.632812 8.0625 -8.28125 C 7.976562 -7.925781 7.890625 -7.578125 7.796875 -7.234375 C 7.679688 -6.816406 7.578125 -6.394531 7.484375 -5.96875 C 7.390625 -5.550781 7.296875 -5.128906 7.203125 -4.703125 C 6.992188 -3.785156 6.785156 -2.859375 6.578125 -1.921875 C 6.378906 -0.984375 6.164062 -0.0546875 5.9375 0.859375 C 5.925781 0.898438 5.910156 0.941406 5.890625 0.984375 C 5.878906 1.023438 5.867188 1.066406 5.859375 1.109375 C 5.816406 1.210938 5.738281 1.257812 5.625 1.25 C 5.539062 1.257812 5.453125 1.253906 5.359375 1.234375 C 5.265625 1.222656 5.164062 1.210938 5.0625 1.203125 C 4.988281 1.191406 4.90625 1.175781 4.8125 1.15625 C 4.726562 1.144531 4.648438 1.132812 4.578125 1.125 L 4.203125 1.03125 C 4.097656 1.007812 3.988281 0.988281 3.875 0.96875 C 3.769531 0.945312 3.660156 0.925781 3.546875 0.90625 C 3.398438 0.875 3.300781 0.820312 3.25 0.75 C 3.207031 0.6875 3.203125 0.566406 3.234375 0.390625 C 3.347656 -0.210938 3.46875 -0.816406 3.59375 -1.421875 C 3.726562 -2.023438 3.859375 -2.628906 3.984375 -3.234375 L 4.484375 -5.53125 Z M 4.53125 -5.515625 "/></g></g></g><g fill="#fcfdf2" fill-opacity="1"><g transform="translate(210.515616, 272.755635)"><g><path d="M 4.0625 -3.1875 C 4.039062 -2.820312 4.007812 -2.457031 3.96875 -2.09375 C 3.9375 -1.726562 3.914062 -1.363281 3.90625 -1 C 3.875 -0.8125 3.851562 -0.628906 3.84375 -0.453125 C 3.832031 -0.273438 3.816406 -0.09375 3.796875 0.09375 L 3.796875 0.25 C 3.753906 0.351562 3.691406 0.40625 3.609375 0.40625 C 3.359375 0.425781 3.097656 0.441406 2.828125 0.453125 C 2.566406 0.472656 2.3125 0.484375 2.0625 0.484375 C 1.90625 0.503906 1.738281 0.492188 1.5625 0.453125 C 1.382812 0.410156 1.21875 0.378906 1.0625 0.359375 C 0.945312 0.359375 0.894531 0.273438 0.90625 0.109375 C 0.882812 -0.0664062 0.894531 -0.253906 0.9375 -0.453125 C 0.96875 -0.910156 1 -1.363281 1.03125 -1.8125 C 1.070312 -2.269531 1.101562 -2.722656 1.125 -3.171875 C 1.144531 -3.691406 1.160156 -4.207031 1.171875 -4.71875 C 1.191406 -5.238281 1.207031 -5.753906 1.21875 -6.265625 C 1.238281 -6.609375 1.25 -6.941406 1.25 -7.265625 C 1.25 -7.597656 1.253906 -7.9375 1.265625 -8.28125 C 1.296875 -8.875 1.332031 -9.476562 1.375 -10.09375 C 1.414062 -10.707031 1.445312 -11.320312 1.46875 -11.9375 C 1.5 -12.300781 1.523438 -12.664062 1.546875 -13.03125 C 1.566406 -13.394531 1.597656 -13.757812 1.640625 -14.125 C 1.648438 -14.332031 1.664062 -14.535156 1.6875 -14.734375 C 1.71875 -14.941406 1.742188 -15.148438 1.765625 -15.359375 C 1.765625 -15.472656 1.820312 -15.539062 1.9375 -15.5625 C 2.050781 -15.59375 2.148438 -15.613281 2.234375 -15.625 C 2.328125 -15.632812 2.414062 -15.640625 2.5 -15.640625 C 2.707031 -15.640625 2.910156 -15.632812 3.109375 -15.625 C 3.304688 -15.613281 3.5 -15.601562 3.6875 -15.59375 C 3.820312 -15.582031 3.953125 -15.566406 4.078125 -15.546875 C 4.203125 -15.523438 4.320312 -15.507812 4.4375 -15.5 C 4.625 -15.46875 4.710938 -15.367188 4.703125 -15.203125 C 4.710938 -15.035156 4.710938 -14.867188 4.703125 -14.703125 C 4.691406 -14.535156 4.6875 -14.367188 4.6875 -14.203125 C 4.644531 -13.835938 4.617188 -13.472656 4.609375 -13.109375 C 4.609375 -12.742188 4.582031 -12.378906 4.53125 -12.015625 C 4.488281 -11.660156 4.457031 -11.304688 4.4375 -10.953125 C 4.425781 -10.597656 4.414062 -10.242188 4.40625 -9.890625 L 4.390625 -9.796875 C 4.378906 -9.742188 4.414062 -9.71875 4.5 -9.71875 C 4.59375 -9.707031 4.6875 -9.703125 4.78125 -9.703125 C 4.875 -9.703125 4.960938 -9.703125 5.046875 -9.703125 C 5.242188 -9.691406 5.429688 -9.679688 5.609375 -9.671875 C 5.796875 -9.671875 5.984375 -9.671875 6.171875 -9.671875 C 6.421875 -9.691406 6.675781 -9.703125 6.9375 -9.703125 C 7.195312 -9.710938 7.453125 -9.722656 7.703125 -9.734375 C 7.773438 -9.742188 7.816406 -9.753906 7.828125 -9.765625 C 7.847656 -9.773438 7.859375 -9.820312 7.859375 -9.90625 C 7.878906 -10.4375 7.894531 -10.960938 7.90625 -11.484375 C 7.914062 -12.015625 7.945312 -12.535156 8 -13.046875 C 8.019531 -13.640625 8.066406 -14.226562 8.140625 -14.8125 L 8.15625 -15 C 8.1875 -15.175781 8.296875 -15.273438 8.484375 -15.296875 C 8.640625 -15.328125 8.804688 -15.351562 8.984375 -15.375 C 9.160156 -15.40625 9.328125 -15.421875 9.484375 -15.421875 C 9.691406 -15.453125 9.90625 -15.46875 10.125 -15.46875 C 10.34375 -15.46875 10.5625 -15.453125 10.78125 -15.421875 C 10.9375 -15.421875 11.015625 -15.332031 11.015625 -15.15625 C 11.003906 -15.070312 10.992188 -14.984375 10.984375 -14.890625 C 10.984375 -14.804688 10.976562 -14.722656 10.96875 -14.640625 C 10.9375 -14.222656 10.914062 -13.8125 10.90625 -13.40625 C 10.894531 -13 10.894531 -12.59375 10.90625 -12.1875 C 10.90625 -11.59375 10.894531 -11.003906 10.875 -10.421875 C 10.851562 -9.835938 10.832031 -9.25 10.8125 -8.65625 C 10.800781 -8.050781 10.785156 -7.457031 10.765625 -6.875 C 10.742188 -6.300781 10.726562 -5.710938 10.71875 -5.109375 C 10.695312 -4.398438 10.675781 -3.691406 10.65625 -2.984375 C 10.632812 -2.285156 10.613281 -1.582031 10.59375 -0.875 C 10.582031 -0.6875 10.570312 -0.488281 10.5625 -0.28125 C 10.550781 -0.0820312 10.554688 0.117188 10.578125 0.328125 C 10.566406 0.378906 10.550781 0.421875 10.53125 0.453125 C 10.519531 0.597656 10.453125 0.664062 10.328125 0.65625 C 10.117188 0.675781 9.90625 0.6875 9.6875 0.6875 C 9.476562 0.6875 9.273438 0.675781 9.078125 0.65625 C 8.941406 0.613281 8.804688 0.585938 8.671875 0.578125 C 8.546875 0.578125 8.414062 0.566406 8.28125 0.546875 C 8.207031 0.546875 8.128906 0.535156 8.046875 0.515625 C 7.960938 0.503906 7.878906 0.492188 7.796875 0.484375 C 7.628906 0.460938 7.546875 0.367188 7.546875 0.203125 C 7.554688 -0.222656 7.5625 -0.65625 7.5625 -1.09375 C 7.5625 -1.53125 7.5625 -1.960938 7.5625 -2.390625 C 7.570312 -2.847656 7.585938 -3.3125 7.609375 -3.78125 C 7.640625 -4.25 7.660156 -4.71875 7.671875 -5.1875 L 7.734375 -6.46875 C 7.734375 -6.539062 7.722656 -6.585938 7.703125 -6.609375 C 7.691406 -6.628906 7.648438 -6.640625 7.578125 -6.640625 C 7.304688 -6.648438 7.03125 -6.660156 6.75 -6.671875 C 6.476562 -6.691406 6.203125 -6.695312 5.921875 -6.6875 C 5.660156 -6.695312 5.398438 -6.703125 5.140625 -6.703125 C 4.890625 -6.710938 4.640625 -6.71875 4.390625 -6.71875 C 4.316406 -6.707031 4.269531 -6.691406 4.25 -6.671875 C 4.226562 -6.660156 4.210938 -6.617188 4.203125 -6.546875 C 4.191406 -6.179688 4.175781 -5.816406 4.15625 -5.453125 C 4.132812 -5.085938 4.125 -4.722656 4.125 -4.359375 Z M 4.0625 -3.1875 "/></g></g></g><g fill="#fcfdf2" fill-opacity="1"><g transform="translate(223.051991, 273.052695)"><g/></g></g><g fill="#fcfdf2" fill-opacity="1"><g transform="translate(228.519428, 272.742657)"><g><path d="M -0.171875 -5.78125 C -0.347656 -6.601562 -0.519531 -7.429688 -0.6875 -8.265625 C -0.851562 -9.109375 -1.03125 -9.941406 -1.21875 -10.765625 C -1.289062 -11.097656 -1.375 -11.425781 -1.46875 -11.75 C -1.570312 -12.082031 -1.664062 -12.410156 -1.75 -12.734375 C -1.789062 -12.835938 -1.816406 -12.929688 -1.828125 -13.015625 C -1.847656 -13.109375 -1.867188 -13.207031 -1.890625 -13.3125 C -1.953125 -13.5625 -2.003906 -13.816406 -2.046875 -14.078125 C -2.085938 -14.347656 -2.128906 -14.617188 -2.171875 -14.890625 C -2.210938 -15.222656 -2.070312 -15.421875 -1.75 -15.484375 C -1.46875 -15.546875 -1.175781 -15.609375 -0.875 -15.671875 C -0.582031 -15.734375 -0.289062 -15.785156 0 -15.828125 L 0.859375 -16.015625 C 1.253906 -16.078125 1.644531 -16.144531 2.03125 -16.21875 C 2.414062 -16.289062 2.789062 -16.359375 3.15625 -16.421875 L 3.578125 -16.515625 C 3.691406 -16.535156 3.8125 -16.550781 3.9375 -16.5625 C 4.070312 -16.570312 4.203125 -16.570312 4.328125 -16.5625 C 4.367188 -16.550781 4.414062 -16.539062 4.46875 -16.53125 C 4.519531 -16.53125 4.570312 -16.523438 4.625 -16.515625 C 5.21875 -16.492188 5.726562 -16.285156 6.15625 -15.890625 C 6.195312 -15.867188 6.238281 -15.84375 6.28125 -15.8125 C 6.320312 -15.78125 6.359375 -15.753906 6.390625 -15.734375 C 6.421875 -15.679688 6.460938 -15.632812 6.515625 -15.59375 C 6.578125 -15.5625 6.628906 -15.523438 6.671875 -15.484375 C 6.804688 -15.273438 6.945312 -15.0625 7.09375 -14.84375 C 7.238281 -14.625 7.363281 -14.394531 7.46875 -14.15625 C 7.6875 -13.6875 7.875 -13.195312 8.03125 -12.6875 C 8.1875 -12.1875 8.300781 -11.679688 8.375 -11.171875 C 8.507812 -10.472656 8.488281 -9.734375 8.3125 -8.953125 C 8.269531 -8.765625 8.207031 -8.5625 8.125 -8.34375 C 8.050781 -8.132812 7.96875 -7.925781 7.875 -7.71875 C 7.6875 -7.363281 7.414062 -7.0625 7.0625 -6.8125 C 6.9375 -6.738281 6.820312 -6.65625 6.71875 -6.5625 C 6.613281 -6.476562 6.507812 -6.390625 6.40625 -6.296875 C 6.28125 -6.191406 6.140625 -6.09375 5.984375 -6 C 5.835938 -5.914062 5.679688 -5.84375 5.515625 -5.78125 C 5.429688 -5.75 5.347656 -5.710938 5.265625 -5.671875 C 5.179688 -5.628906 5.09375 -5.585938 5 -5.546875 C 4.894531 -5.515625 4.796875 -5.484375 4.703125 -5.453125 C 4.617188 -5.429688 4.53125 -5.410156 4.4375 -5.390625 C 4.332031 -5.359375 4.226562 -5.328125 4.125 -5.296875 C 4.03125 -5.273438 3.921875 -5.238281 3.796875 -5.1875 C 3.765625 -5.164062 3.707031 -5.144531 3.625 -5.125 C 3.539062 -5.113281 3.460938 -5.085938 3.390625 -5.046875 C 3.316406 -5.035156 3.273438 -5.023438 3.265625 -5.015625 C 3.253906 -5.003906 3.257812 -4.960938 3.28125 -4.890625 C 3.3125 -4.617188 3.359375 -4.359375 3.421875 -4.109375 C 3.492188 -3.859375 3.539062 -3.609375 3.5625 -3.359375 C 3.632812 -2.953125 3.707031 -2.546875 3.78125 -2.140625 C 3.863281 -1.742188 3.9375 -1.34375 4 -0.9375 C 4.039062 -0.695312 3.953125 -0.554688 3.734375 -0.515625 C 3.492188 -0.460938 3.25 -0.414062 3 -0.375 C 2.757812 -0.332031 2.519531 -0.285156 2.28125 -0.234375 C 2.21875 -0.234375 2.144531 -0.234375 2.0625 -0.234375 C 1.988281 -0.234375 1.914062 -0.222656 1.84375 -0.203125 C 1.800781 -0.191406 1.75 -0.175781 1.6875 -0.15625 C 1.625 -0.132812 1.5625 -0.117188 1.5 -0.109375 C 1.488281 -0.0976562 1.472656 -0.0859375 1.453125 -0.078125 C 1.429688 -0.078125 1.410156 -0.0703125 1.390625 -0.0625 C 1.242188 -0.03125 1.128906 -0.03125 1.046875 -0.0625 C 0.960938 -0.101562 0.90625 -0.210938 0.875 -0.390625 C 0.851562 -0.585938 0.820312 -0.789062 0.78125 -1 C 0.75 -1.207031 0.710938 -1.414062 0.671875 -1.625 C 0.609375 -2.03125 0.535156 -2.445312 0.453125 -2.875 C 0.367188 -3.300781 0.28125 -3.726562 0.1875 -4.15625 L -0.15625 -5.796875 Z M 2.109375 -10.53125 L 2.125 -10.53125 C 2.195312 -10.175781 2.273438 -9.820312 2.359375 -9.46875 C 2.453125 -9.113281 2.535156 -8.75 2.609375 -8.375 C 2.617188 -8.332031 2.625 -8.273438 2.625 -8.203125 C 2.632812 -8.140625 2.65625 -8.070312 2.6875 -8 C 2.707031 -7.914062 2.769531 -7.882812 2.875 -7.90625 C 3.0625 -7.945312 3.242188 -7.988281 3.421875 -8.03125 C 3.609375 -8.082031 3.789062 -8.140625 3.96875 -8.203125 C 4.226562 -8.304688 4.453125 -8.425781 4.640625 -8.5625 C 4.867188 -8.6875 5.003906 -8.859375 5.046875 -9.078125 C 5.054688 -9.140625 5.066406 -9.195312 5.078125 -9.25 C 5.097656 -9.300781 5.113281 -9.347656 5.125 -9.390625 C 5.144531 -9.578125 5.171875 -9.769531 5.203125 -9.96875 C 5.242188 -10.175781 5.25 -10.378906 5.21875 -10.578125 C 5.195312 -10.878906 5.15625 -11.171875 5.09375 -11.453125 C 5.039062 -11.734375 4.976562 -12 4.90625 -12.25 C 4.84375 -12.5625 4.695312 -12.863281 4.46875 -13.15625 C 4.375 -13.300781 4.242188 -13.394531 4.078125 -13.4375 C 3.910156 -13.476562 3.742188 -13.5 3.578125 -13.5 C 3.410156 -13.507812 3.238281 -13.5 3.0625 -13.46875 C 2.84375 -13.414062 2.617188 -13.363281 2.390625 -13.3125 C 2.160156 -13.257812 1.925781 -13.207031 1.6875 -13.15625 C 1.613281 -13.144531 1.570312 -13.128906 1.5625 -13.109375 C 1.5625 -13.097656 1.566406 -13.054688 1.578125 -12.984375 C 1.660156 -12.585938 1.75 -12.1875 1.84375 -11.78125 C 1.9375 -11.375 2.023438 -10.957031 2.109375 -10.53125 Z M 2.109375 -10.53125 "/></g></g></g><g fill="#fcfdf2" fill-opacity="1"><g transform="translate(240.662309, 270.09219)"><g><path d="M 4.1875 -1.625 L 3.25 -1.234375 C 3.113281 -1.179688 2.984375 -1.132812 2.859375 -1.09375 C 2.742188 -1.050781 2.613281 -1.007812 2.46875 -0.96875 L 1.671875 -0.640625 C 1.628906 -0.617188 1.582031 -0.597656 1.53125 -0.578125 C 1.476562 -0.554688 1.421875 -0.546875 1.359375 -0.546875 C 1.191406 -0.492188 1.050781 -0.550781 0.9375 -0.71875 C 0.820312 -0.988281 0.703125 -1.25 0.578125 -1.5 C 0.453125 -1.75 0.320312 -2.015625 0.1875 -2.296875 C 0.0195312 -2.660156 -0.144531 -3.03125 -0.3125 -3.40625 C -0.488281 -3.78125 -0.660156 -4.15625 -0.828125 -4.53125 C -0.972656 -4.832031 -1.109375 -5.140625 -1.234375 -5.453125 C -1.367188 -5.773438 -1.5 -6.085938 -1.625 -6.390625 C -1.9375 -7.109375 -2.238281 -7.832031 -2.53125 -8.5625 C -2.832031 -9.289062 -3.117188 -10.023438 -3.390625 -10.765625 C -3.472656 -10.953125 -3.546875 -11.144531 -3.609375 -11.34375 C -3.671875 -11.539062 -3.738281 -11.726562 -3.8125 -11.90625 C -3.882812 -12.0625 -3.957031 -12.21875 -4.03125 -12.375 C -4.113281 -12.53125 -4.1875 -12.679688 -4.25 -12.828125 C -4.269531 -12.890625 -4.296875 -12.953125 -4.328125 -13.015625 C -4.359375 -13.085938 -4.378906 -13.15625 -4.390625 -13.21875 C -4.410156 -13.332031 -4.441406 -13.445312 -4.484375 -13.5625 C -4.535156 -13.675781 -4.585938 -13.785156 -4.640625 -13.890625 C -4.671875 -13.992188 -4.703125 -14.085938 -4.734375 -14.171875 C -4.765625 -14.253906 -4.796875 -14.347656 -4.828125 -14.453125 C -4.878906 -14.660156 -4.816406 -14.8125 -4.640625 -14.90625 C -4.535156 -14.988281 -4.421875 -15.0625 -4.296875 -15.125 C -4.179688 -15.1875 -4.066406 -15.238281 -3.953125 -15.28125 C -3.703125 -15.382812 -3.453125 -15.484375 -3.203125 -15.578125 C -2.953125 -15.671875 -2.695312 -15.773438 -2.4375 -15.890625 C -2.164062 -15.992188 -1.894531 -16.101562 -1.625 -16.21875 C -1.351562 -16.34375 -1.082031 -16.46875 -0.8125 -16.59375 C -0.726562 -16.632812 -0.65625 -16.660156 -0.59375 -16.671875 C -0.457031 -16.710938 -0.332031 -16.757812 -0.21875 -16.8125 C -0.101562 -16.863281 0.015625 -16.921875 0.140625 -16.984375 C 0.453125 -17.179688 0.820312 -17.25 1.25 -17.1875 C 1.4375 -17.164062 1.632812 -17.140625 1.84375 -17.109375 C 2.0625 -17.078125 2.273438 -17.023438 2.484375 -16.953125 C 2.523438 -16.929688 2.578125 -16.914062 2.640625 -16.90625 C 2.703125 -16.894531 2.769531 -16.882812 2.84375 -16.875 C 3.019531 -16.851562 3.195312 -16.8125 3.375 -16.75 C 3.550781 -16.6875 3.722656 -16.601562 3.890625 -16.5 C 4.117188 -16.382812 4.34375 -16.25 4.5625 -16.09375 C 4.78125 -15.945312 4.988281 -15.78125 5.1875 -15.59375 C 5.34375 -15.425781 5.488281 -15.257812 5.625 -15.09375 C 5.757812 -14.925781 5.878906 -14.734375 5.984375 -14.515625 C 6.046875 -14.390625 6.117188 -14.257812 6.203125 -14.125 C 6.285156 -14 6.367188 -13.863281 6.453125 -13.71875 C 6.554688 -13.5625 6.648438 -13.390625 6.734375 -13.203125 C 6.828125 -13.023438 6.921875 -12.835938 7.015625 -12.640625 C 7.117188 -12.441406 7.222656 -12.234375 7.328125 -12.015625 C 7.429688 -11.804688 7.53125 -11.59375 7.625 -11.375 C 7.757812 -11.050781 7.875 -10.71875 7.96875 -10.375 C 8.070312 -10.039062 8.15625 -9.707031 8.21875 -9.375 C 8.238281 -9.1875 8.269531 -8.988281 8.3125 -8.78125 C 8.351562 -8.582031 8.390625 -8.382812 8.421875 -8.1875 C 8.453125 -7.957031 8.472656 -7.71875 8.484375 -7.46875 C 8.503906 -7.226562 8.507812 -6.984375 8.5 -6.734375 C 8.476562 -6.535156 8.453125 -6.335938 8.421875 -6.140625 C 8.398438 -5.953125 8.351562 -5.75 8.28125 -5.53125 C 8.25 -5.445312 8.21875 -5.351562 8.1875 -5.25 C 8.164062 -5.144531 8.140625 -5.046875 8.109375 -4.953125 C 7.953125 -4.640625 7.785156 -4.335938 7.609375 -4.046875 C 7.429688 -3.753906 7.226562 -3.484375 7 -3.234375 C 6.976562 -3.210938 6.953125 -3.195312 6.921875 -3.1875 C 6.898438 -3.175781 6.882812 -3.15625 6.875 -3.125 C 6.769531 -3.007812 6.660156 -2.910156 6.546875 -2.828125 C 6.429688 -2.742188 6.3125 -2.65625 6.1875 -2.5625 C 5.957031 -2.40625 5.707031 -2.265625 5.4375 -2.140625 C 5.164062 -2.023438 4.890625 -1.910156 4.609375 -1.796875 C 4.546875 -1.785156 4.476562 -1.757812 4.40625 -1.71875 C 4.332031 -1.6875 4.257812 -1.65625 4.1875 -1.625 Z M 1.125 -8.6875 C 1.25 -8.394531 1.367188 -8.101562 1.484375 -7.8125 C 1.597656 -7.519531 1.71875 -7.222656 1.84375 -6.921875 L 2.6875 -4.875 C 2.71875 -4.800781 2.75 -4.757812 2.78125 -4.75 C 2.8125 -4.738281 2.867188 -4.75 2.953125 -4.78125 C 3.054688 -4.84375 3.164062 -4.90625 3.28125 -4.96875 C 3.40625 -5.03125 3.523438 -5.09375 3.640625 -5.15625 C 3.816406 -5.257812 3.984375 -5.363281 4.140625 -5.46875 C 4.296875 -5.582031 4.453125 -5.722656 4.609375 -5.890625 C 4.910156 -6.253906 5.085938 -6.695312 5.140625 -7.21875 C 5.148438 -7.4375 5.140625 -7.644531 5.109375 -7.84375 C 5.085938 -8.050781 5.066406 -8.257812 5.046875 -8.46875 C 5.003906 -8.726562 4.921875 -9 4.796875 -9.28125 C 4.753906 -9.375 4.710938 -9.460938 4.671875 -9.546875 C 4.640625 -9.628906 4.601562 -9.71875 4.5625 -9.8125 C 4.375 -10.332031 4.097656 -10.828125 3.734375 -11.296875 C 3.578125 -11.503906 3.414062 -11.710938 3.25 -11.921875 C 3.09375 -12.140625 2.929688 -12.347656 2.765625 -12.546875 C 2.617188 -12.710938 2.457031 -12.847656 2.28125 -12.953125 C 2.101562 -13.054688 1.90625 -13.125 1.6875 -13.15625 C 1.632812 -13.164062 1.582031 -13.175781 1.53125 -13.1875 C 1.476562 -13.207031 1.425781 -13.210938 1.375 -13.203125 C 1.21875 -13.285156 1.0625 -13.316406 0.90625 -13.296875 C 0.75 -13.285156 0.597656 -13.25 0.453125 -13.1875 C 0.335938 -13.132812 0.21875 -13.082031 0.09375 -13.03125 C -0.03125 -12.976562 -0.15625 -12.925781 -0.28125 -12.875 C -0.320312 -12.851562 -0.363281 -12.832031 -0.40625 -12.8125 C -0.445312 -12.800781 -0.484375 -12.78125 -0.515625 -12.75 C -0.535156 -12.6875 -0.539062 -12.648438 -0.53125 -12.640625 C -0.539062 -12.609375 -0.535156 -12.566406 -0.515625 -12.515625 C -0.316406 -12.097656 -0.128906 -11.671875 0.046875 -11.234375 C 0.234375 -10.804688 0.421875 -10.378906 0.609375 -9.953125 Z M 1.125 -8.6875 "/></g></g></g><g fill="#fcfdf2" fill-opacity="1"><g transform="translate(252.791528, 264.849412)"><g><path d="M -3.265625 -6.890625 L -4.71875 -9.1875 C -5.082031 -9.769531 -5.453125 -10.351562 -5.828125 -10.9375 C -6.210938 -11.519531 -6.582031 -12.09375 -6.9375 -12.65625 C -7.019531 -12.75 -7.082031 -12.84375 -7.125 -12.9375 C -7.175781 -13.039062 -7.226562 -13.144531 -7.28125 -13.25 C -7.332031 -13.320312 -7.335938 -13.394531 -7.296875 -13.46875 C -7.273438 -13.632812 -7.195312 -13.773438 -7.0625 -13.890625 C -6.800781 -14.109375 -6.539062 -14.3125 -6.28125 -14.5 C -6.03125 -14.695312 -5.773438 -14.894531 -5.515625 -15.09375 L -2.640625 -16.90625 C -2.492188 -17 -2.34375 -17.09375 -2.1875 -17.1875 C -2.039062 -17.28125 -1.894531 -17.375 -1.75 -17.46875 C -1.65625 -17.53125 -1.546875 -17.585938 -1.421875 -17.640625 C -1.304688 -17.691406 -1.191406 -17.726562 -1.078125 -17.75 C -0.960938 -17.820312 -0.859375 -17.84375 -0.765625 -17.8125 C -0.679688 -17.78125 -0.597656 -17.722656 -0.515625 -17.640625 C -0.484375 -17.617188 -0.445312 -17.578125 -0.40625 -17.515625 C -0.238281 -17.253906 -0.0664062 -16.984375 0.109375 -16.703125 C 0.285156 -16.421875 0.445312 -16.125 0.59375 -15.8125 C 0.675781 -15.632812 0.695312 -15.5 0.65625 -15.40625 C 0.613281 -15.320312 0.53125 -15.222656 0.40625 -15.109375 C 0.3125 -15.035156 0.210938 -14.96875 0.109375 -14.90625 C 0.015625 -14.84375 -0.0820312 -14.78125 -0.1875 -14.71875 C -0.375 -14.59375 -0.5625 -14.472656 -0.75 -14.359375 C -0.9375 -14.242188 -1.125 -14.113281 -1.3125 -13.96875 C -1.457031 -13.863281 -1.601562 -13.757812 -1.75 -13.65625 C -1.894531 -13.550781 -2.039062 -13.453125 -2.1875 -13.359375 L -2.9375 -12.796875 C -2.988281 -12.742188 -3.015625 -12.707031 -3.015625 -12.6875 C -3.023438 -12.675781 -3.007812 -12.640625 -2.96875 -12.578125 C -2.78125 -12.273438 -2.59375 -11.976562 -2.40625 -11.6875 C -2.21875 -11.40625 -2.03125 -11.117188 -1.84375 -10.828125 C -1.78125 -10.753906 -1.726562 -10.679688 -1.6875 -10.609375 C -1.644531 -10.535156 -1.601562 -10.460938 -1.5625 -10.390625 C -1.5 -10.296875 -1.429688 -10.269531 -1.359375 -10.3125 C -1.179688 -10.445312 -1 -10.578125 -0.8125 -10.703125 C -0.632812 -10.828125 -0.46875 -10.953125 -0.3125 -11.078125 L -0.1875 -11.140625 C 0.0507812 -11.296875 0.300781 -11.453125 0.5625 -11.609375 C 0.832031 -11.773438 1.097656 -11.9375 1.359375 -12.09375 C 1.441406 -12.132812 1.519531 -12.160156 1.59375 -12.171875 C 1.675781 -12.191406 1.757812 -12.171875 1.84375 -12.109375 C 1.945312 -12.035156 2.023438 -11.960938 2.078125 -11.890625 C 2.210938 -11.703125 2.335938 -11.507812 2.453125 -11.3125 C 2.578125 -11.125 2.707031 -10.925781 2.84375 -10.71875 C 2.882812 -10.644531 2.925781 -10.566406 2.96875 -10.484375 C 3.007812 -10.410156 3.054688 -10.332031 3.109375 -10.25 C 3.171875 -10.144531 3.15625 -10.0625 3.0625 -10 C 2.90625 -9.875 2.734375 -9.742188 2.546875 -9.609375 C 2.367188 -9.484375 2.191406 -9.378906 2.015625 -9.296875 C 1.734375 -9.148438 1.460938 -8.992188 1.203125 -8.828125 C 0.941406 -8.671875 0.675781 -8.5 0.40625 -8.3125 C 0.332031 -8.257812 0.253906 -8.203125 0.171875 -8.140625 C 0.0976562 -8.085938 0.0195312 -8.035156 -0.0625 -7.984375 C -0.125 -7.953125 -0.128906 -7.894531 -0.078125 -7.8125 C 0.0664062 -7.550781 0.21875 -7.285156 0.375 -7.015625 C 0.539062 -6.753906 0.707031 -6.488281 0.875 -6.21875 C 1.15625 -5.78125 1.4375 -5.34375 1.71875 -4.90625 C 2.007812 -4.46875 2.300781 -4.03125 2.59375 -3.59375 C 2.71875 -3.394531 2.835938 -3.191406 2.953125 -2.984375 C 3.078125 -2.785156 3.203125 -2.585938 3.328125 -2.390625 C 3.421875 -2.210938 3.394531 -2.054688 3.25 -1.921875 C 3.226562 -1.910156 3.203125 -1.890625 3.171875 -1.859375 C 3.140625 -1.835938 3.101562 -1.8125 3.0625 -1.78125 C 2.851562 -1.65625 2.640625 -1.523438 2.421875 -1.390625 C 2.203125 -1.253906 1.988281 -1.128906 1.78125 -1.015625 C 1.675781 -0.984375 1.570312 -0.925781 1.46875 -0.84375 C 1.375 -0.769531 1.28125 -0.703125 1.1875 -0.640625 L 1.0625 -0.5625 C 0.925781 -0.507812 0.835938 -0.492188 0.796875 -0.515625 C 0.765625 -0.535156 0.71875 -0.597656 0.65625 -0.703125 C 0.363281 -1.128906 0.0820312 -1.5625 -0.1875 -2 C -0.46875 -2.4375 -0.738281 -2.863281 -1 -3.28125 L -1.71875 -4.421875 C -1.96875 -4.835938 -2.222656 -5.25 -2.484375 -5.65625 C -2.742188 -6.070312 -3.003906 -6.484375 -3.265625 -6.890625 Z M -3.265625 -6.890625 "/></g></g></g></svg>